<svg
              width="180"
              height="40"
              viewBox="0 0 180 40"
              fill="none"
              xmlns="http://www.w3.org/2000/svg"
            >
              <path
                d="M43.5693 28.2225L44.6873 27.9904C45.6738 27.725 45.9369 27.5924 45.9369 25.6025V9.98217C45.9369 7.99231 45.6409 7.82649 44.6873 7.59434L43.5693 7.36219V6.43359H61.3918L61.7206 13.0333H60.7012C59.8792 11.2092 59.353 10.2475 58.8598 9.51787C57.8076 7.99231 57.117 7.85966 54.8481 7.85966C53.1711 7.85966 52.349 8.05864 51.8558 8.1913V16.6482H52.7436C55.0454 16.6482 55.5715 16.3829 55.9661 15.6533C56.4265 14.8241 56.6895 14.194 56.9855 13.1328H57.972V21.6891H56.9855C56.6895 20.6611 56.4265 19.9978 55.9661 19.036C55.5715 18.2069 55.144 18.0411 52.7436 18.0411H51.8558V24.4086C51.8558 27.3602 51.9544 27.6919 55.1441 27.6919C57.7747 27.6919 58.3008 27.3602 59.3859 25.7352C59.9778 24.8397 60.6026 23.4469 61.4575 21.3575H62.5098L62.0494 29.1511H43.6022L43.5693 28.2225Z"
                fill="#171717"
              />
              <path
                d="M65.2719 15.7858C64.5156 13.9286 64.1539 13.4643 63.3318 13.199L62.707 13V12.1377H72.4732V13L71.5854 13.2321C70.8948 13.4311 70.566 13.7627 70.566 14.5587C70.566 15.023 70.7304 15.5868 70.9935 16.3164L73.7227 23.8778H73.8872L76.5178 16.3164C76.8137 15.5204 76.9452 14.9567 76.9452 14.4924C76.9452 13.7627 76.6164 13.3979 75.9259 13.2321L75.0381 13V12.1377H81.0556V13L80.4308 13.199C79.5759 13.4974 79.2142 13.9949 78.425 16.1506L73.3939 29.151H70.6318L65.2719 15.7858Z"
                fill="#171717"
              />
              <path
                d="M80.2993 20.5614C80.2993 14.8571 84.4754 11.7065 88.7831 11.7065C93.2551 11.7065 96.0501 13.9617 96.1488 19.8981H85.429C85.5277 25.2707 87.5335 26.7299 90.8876 26.7299C92.8934 26.7299 94.4389 26.133 95.6555 25.5029V26.5973C94.5046 27.8575 92.0384 29.5821 88.7831 29.5821C83.1272 29.5157 80.2993 26.133 80.2993 20.5614ZM85.429 18.6379L90.9862 18.3394C90.9862 14.3928 90.4601 12.9336 88.52 12.9336C86.8759 12.9336 85.5606 14.5255 85.429 18.6379Z"
                fill="#171717"
              />
              <path
                d="M104.699 14.2274C105.619 13.2325 107.494 11.6074 109.664 11.6074C111.045 11.6074 112.196 12.735 112.196 14.1611C112.196 15.5871 111.078 16.7147 109.664 16.7147C108.644 16.7147 107.724 16.0846 107.362 15.1892C107.165 14.8244 106.737 14.7249 106.441 14.7249C105.849 14.7249 105.159 15.156 104.731 15.554V26.1665C104.731 27.6921 104.863 27.8579 105.849 28.0237L106.935 28.2559V29.1513H97.563V28.2559L98.418 28.0237C99.5031 27.7252 99.6346 27.5594 99.6346 26.1665V15.9851C99.6346 14.5922 99.4702 14.4927 98.5495 13.8626L97.4644 13.133V12.4697L104.304 11.6738L104.666 11.9391L104.6 14.1942L104.699 14.2274Z"
                fill="#171717"
              />
              <path
                d="M113.182 28.2559L114.037 28.0238C115.122 27.7253 115.254 27.5595 115.254 26.1666V15.9852C115.254 14.5923 115.089 14.4928 114.169 13.8627L113.083 13.1331V12.4698L119.923 11.6738L120.285 11.906L120.219 13.9953H120.351C122.06 12.7682 124.198 11.6738 126.565 11.6738C129.328 11.6738 130.807 13.0999 130.807 16.0515V26.1334C130.807 27.5595 130.939 27.7253 131.991 27.9906L132.846 28.2228V29.1182H123.803V28.2228L124.592 28.0238C125.579 27.7585 125.678 27.659 125.678 26.1334V17.3449C125.678 15.3551 124.954 14.7249 123.442 14.7249C122.291 14.7249 121.14 14.9903 120.416 15.1561V26.1666C120.416 27.7253 120.515 27.7916 121.501 28.057L122.291 28.2559V29.1514H113.248V28.2559H113.182Z"
                fill="#171717"
              />
              <path
                d="M133.471 20.6609C133.471 14.3928 137.877 11.7065 142.25 11.7065C146.953 11.7065 151.063 14.5587 151.063 20.4951C151.063 26.7631 146.722 29.5157 142.25 29.5157C137.548 29.5157 133.471 26.6636 133.471 20.6609ZM145.637 20.8267C145.637 14.227 144.388 12.9668 142.152 12.9668C140.113 12.9668 138.896 14.4592 138.896 20.0971C138.896 26.7963 139.981 28.2555 142.349 28.2555C144.289 28.2555 145.637 27.0948 145.637 20.8267Z"
                fill="#171717"
              />
              <path
                d="M153.858 25.0057V14.0615H151.819V13.2655C154.351 12.2706 156.291 10.3802 157.212 7.76025H159.054V12.1379H163.361L162.934 14.0615H159.054V24.674C159.054 26.2991 159.547 26.9624 161.158 26.9624C161.947 26.9624 162.901 26.7965 163.493 26.6639V27.5925C162.704 28.3221 161.092 29.516 158.363 29.516C155.436 29.516 153.858 28.2226 153.858 25.0057Z"
                fill="#171717"
              />
              <path
                d="M164.15 20.5614C164.15 14.8571 168.326 11.7065 172.634 11.7065C177.106 11.7065 179.901 13.9617 180 19.8981H169.28C169.379 25.2707 171.385 26.7299 174.739 26.7299C176.744 26.7299 178.29 26.133 179.507 25.5029V26.5973C178.356 27.8575 175.89 29.5821 172.634 29.5821C166.945 29.5157 164.15 26.133 164.15 20.5614ZM169.247 18.6379L174.804 18.3394C174.804 14.3928 174.278 12.9336 172.338 12.9336C170.694 12.9336 169.379 14.5255 169.247 18.6379Z"
                fill="#171717"
              />
              <path
                d="M10.6211 8.98751C10.6211 9.38548 10.5882 10.0488 10.1936 10.4799C9.76617 10.8779 9.10851 10.911 8.71392 10.911H4.50493C3.28827 10.911 2.56485 10.911 2.07161 10.9774C1.80855 11.0105 1.47972 11.1432 1.31531 11.2095C1.24954 11.2427 1.24954 11.2095 1.28243 11.1764L10.8842 1.32657C10.9171 1.29341 10.9499 1.29341 10.9171 1.35973C10.8513 1.52556 10.7198 1.8572 10.6869 2.12251C10.6211 2.61998 10.6211 3.34959 10.6211 4.57667V8.98751ZM19.5652 38.769C18.4472 38.0394 17.8553 37.0776 17.6251 36.4807C17.395 35.9169 17.2634 35.2868 17.2634 34.6566C17.2634 31.904 19.4994 29.6488 22.2616 29.6488C23.0837 29.6488 23.7413 30.3121 23.7413 31.1412C23.7413 31.705 23.4454 32.1693 22.985 32.4346C22.8206 32.5341 22.5904 32.6005 22.426 32.6336C22.2616 32.6668 21.6368 32.7331 21.3409 32.9984C21.0121 33.2637 20.749 33.6949 20.749 34.1592C20.749 34.6566 20.9463 35.1209 21.2751 35.4526C21.867 36.0495 22.6562 36.3812 23.5111 36.3812C25.7472 36.3812 27.5557 34.5571 27.5557 32.302C27.5557 30.279 26.2075 28.4881 24.4319 27.6922C24.1688 27.5595 23.7413 27.46 23.3467 27.3605C22.8535 27.261 22.3931 27.1947 22.3602 27.1947C20.9792 27.0289 17.5265 25.9344 17.2963 22.8502C17.2963 22.8502 16.2769 27.4932 14.2382 28.7534C14.0409 28.8529 13.7779 28.9524 13.4819 29.0187C13.186 29.085 12.8571 29.1182 12.7585 29.1182C9.43734 29.3172 5.91889 28.2559 3.48557 25.7355C3.48557 25.7355 1.84143 24.3757 0.986481 20.5618C0.789185 19.6332 0.394593 17.975 0.164414 16.4163C0.0657654 15.8525 0.0328827 15.4214 0 15.0234C0 13.3984 0.986481 12.3039 2.23602 12.1381C2.26891 12.1381 2.36756 12.1381 2.43332 12.1381C3.18962 12.1381 8.9441 12.1381 8.9441 12.1381C10.095 12.1381 10.7526 11.8396 11.1801 11.4417C11.7391 10.911 11.8707 10.1483 11.8707 9.25283C11.8707 9.25283 11.8707 3.21693 11.8707 2.45415C11.8707 2.42099 11.8707 2.28833 11.8707 2.25517C12.0351 1.02809 13.1202 0 14.7315 0C14.7315 0 15.2247 0 15.5206 0C15.8495 0 16.2441 0.0331645 16.6058 0.0663287C16.8688 0.099493 17.099 0.165822 17.4936 0.265315C19.4995 0.762779 19.9269 2.81896 19.9269 2.81896C19.9269 2.81896 23.7084 3.48225 25.6156 3.81389C27.4242 4.14553 31.8962 4.44401 32.7512 8.98751C34.757 19.7991 33.5404 30.279 33.4417 30.279C32.0278 40.4935 23.6098 39.9961 23.6098 39.9961C21.8012 40.0292 20.453 39.3991 19.5652 38.769ZM27.1282 17.0464C26.0431 16.9469 25.1224 17.3781 24.7936 18.2072C24.7278 18.373 24.662 18.572 24.6949 18.6715C24.7278 18.771 24.7936 18.8041 24.8593 18.8373C25.2539 19.0363 25.9116 19.1358 26.8652 19.2353C27.8188 19.3348 28.4764 19.4011 28.9039 19.3348C28.9697 19.3348 29.0354 19.3016 29.1012 19.2021C29.167 19.1026 29.1341 18.9036 29.1341 18.7378C29.0026 17.8424 28.2134 17.1791 27.1282 17.0464Z"
                fill="#00A82D"
              />
            </svg>
